<mxfile host="app.diagrams.net" modified="2024-03-08T08:50:10.761Z" agent="Mozilla/5.0 (Macintosh; Intel Mac OS X 10_15_7) AppleWebKit/537.36 (KHTML, like Gecko) Chrome/122.0.0.0 Safari/537.36" etag="40pYcfAyHQENHrMpwyWy" version="23.1.5" type="github">
  <diagram name="第 1 页" id="2HOQfuyhVIam7Bouka49">
    <mxGraphModel dx="1314" dy="1265" grid="0" gridSize="10" guides="1" tooltips="1" connect="1" arrows="1" fold="1" page="0" pageScale="1" pageWidth="1169" pageHeight="827" math="0" shadow="0">
      <root>
        <mxCell id="0" />
        <mxCell id="1" parent="0" />
        <mxCell id="dSlqdOf7tPpYg_DSaTrv-7" value="" style="shape=table;startSize=0;container=1;collapsible=0;childLayout=tableLayout;fontSize=16;fillColor=#e1d5e7;strokeColor=#9673a6;" vertex="1" parent="1">
          <mxGeometry x="166" y="-345" width="250" height="250" as="geometry" />
        </mxCell>
        <mxCell id="dSlqdOf7tPpYg_DSaTrv-27" style="shape=tableRow;horizontal=0;startSize=0;swimlaneHead=0;swimlaneBody=0;strokeColor=inherit;top=0;left=0;bottom=0;right=0;collapsible=0;dropTarget=0;fillColor=none;points=[[0,0.5],[1,0.5]];portConstraint=eastwest;fontSize=16;" vertex="1" parent="dSlqdOf7tPpYg_DSaTrv-7">
          <mxGeometry width="250" height="50" as="geometry" />
        </mxCell>
        <mxCell id="dSlqdOf7tPpYg_DSaTrv-28" value="&lt;font face=&quot;Times New Roman&quot; style=&quot;font-size: 35px;&quot;&gt;2&lt;/font&gt;" style="shape=partialRectangle;html=1;whiteSpace=wrap;connectable=0;strokeColor=inherit;overflow=hidden;fillColor=none;top=0;left=0;bottom=0;right=0;pointerEvents=1;fontSize=16;" vertex="1" parent="dSlqdOf7tPpYg_DSaTrv-27">
          <mxGeometry width="50" height="50" as="geometry">
            <mxRectangle width="50" height="50" as="alternateBounds" />
          </mxGeometry>
        </mxCell>
        <mxCell id="dSlqdOf7tPpYg_DSaTrv-29" value="0" style="shape=partialRectangle;html=1;whiteSpace=wrap;connectable=0;strokeColor=inherit;overflow=hidden;fillColor=none;top=0;left=0;bottom=0;right=0;pointerEvents=1;fontSize=16;" vertex="1" parent="dSlqdOf7tPpYg_DSaTrv-27">
          <mxGeometry x="50" width="50" height="50" as="geometry">
            <mxRectangle width="50" height="50" as="alternateBounds" />
          </mxGeometry>
        </mxCell>
        <mxCell id="dSlqdOf7tPpYg_DSaTrv-30" value="3" style="shape=partialRectangle;html=1;whiteSpace=wrap;connectable=0;strokeColor=inherit;overflow=hidden;fillColor=none;top=0;left=0;bottom=0;right=0;pointerEvents=1;fontSize=16;" vertex="1" parent="dSlqdOf7tPpYg_DSaTrv-27">
          <mxGeometry x="100" width="50" height="50" as="geometry">
            <mxRectangle width="50" height="50" as="alternateBounds" />
          </mxGeometry>
        </mxCell>
        <mxCell id="dSlqdOf7tPpYg_DSaTrv-35" value="1" style="shape=partialRectangle;html=1;whiteSpace=wrap;connectable=0;strokeColor=inherit;overflow=hidden;fillColor=none;top=0;left=0;bottom=0;right=0;pointerEvents=1;fontSize=16;" vertex="1" parent="dSlqdOf7tPpYg_DSaTrv-27">
          <mxGeometry x="150" width="50" height="50" as="geometry">
            <mxRectangle width="50" height="50" as="alternateBounds" />
          </mxGeometry>
        </mxCell>
        <mxCell id="dSlqdOf7tPpYg_DSaTrv-40" value="4" style="shape=partialRectangle;html=1;whiteSpace=wrap;connectable=0;strokeColor=inherit;overflow=hidden;fillColor=none;top=0;left=0;bottom=0;right=0;pointerEvents=1;fontSize=16;" vertex="1" parent="dSlqdOf7tPpYg_DSaTrv-27">
          <mxGeometry x="200" width="50" height="50" as="geometry">
            <mxRectangle width="50" height="50" as="alternateBounds" />
          </mxGeometry>
        </mxCell>
        <mxCell id="dSlqdOf7tPpYg_DSaTrv-23" style="shape=tableRow;horizontal=0;startSize=0;swimlaneHead=0;swimlaneBody=0;strokeColor=inherit;top=0;left=0;bottom=0;right=0;collapsible=0;dropTarget=0;fillColor=none;points=[[0,0.5],[1,0.5]];portConstraint=eastwest;fontSize=16;" vertex="1" parent="dSlqdOf7tPpYg_DSaTrv-7">
          <mxGeometry y="50" width="250" height="50" as="geometry" />
        </mxCell>
        <mxCell id="dSlqdOf7tPpYg_DSaTrv-24" value="3" style="shape=partialRectangle;html=1;whiteSpace=wrap;connectable=0;strokeColor=inherit;overflow=hidden;fillColor=none;top=0;left=0;bottom=0;right=0;pointerEvents=1;fontSize=16;" vertex="1" parent="dSlqdOf7tPpYg_DSaTrv-23">
          <mxGeometry width="50" height="50" as="geometry">
            <mxRectangle width="50" height="50" as="alternateBounds" />
          </mxGeometry>
        </mxCell>
        <mxCell id="dSlqdOf7tPpYg_DSaTrv-25" value="7" style="shape=partialRectangle;html=1;whiteSpace=wrap;connectable=0;strokeColor=inherit;overflow=hidden;fillColor=none;top=0;left=0;bottom=0;right=0;pointerEvents=1;fontSize=16;" vertex="1" parent="dSlqdOf7tPpYg_DSaTrv-23">
          <mxGeometry x="50" width="50" height="50" as="geometry">
            <mxRectangle width="50" height="50" as="alternateBounds" />
          </mxGeometry>
        </mxCell>
        <mxCell id="dSlqdOf7tPpYg_DSaTrv-26" value="8" style="shape=partialRectangle;html=1;whiteSpace=wrap;connectable=0;strokeColor=inherit;overflow=hidden;fillColor=none;top=0;left=0;bottom=0;right=0;pointerEvents=1;fontSize=16;" vertex="1" parent="dSlqdOf7tPpYg_DSaTrv-23">
          <mxGeometry x="100" width="50" height="50" as="geometry">
            <mxRectangle width="50" height="50" as="alternateBounds" />
          </mxGeometry>
        </mxCell>
        <mxCell id="dSlqdOf7tPpYg_DSaTrv-36" value="9" style="shape=partialRectangle;html=1;whiteSpace=wrap;connectable=0;strokeColor=inherit;overflow=hidden;fillColor=none;top=0;left=0;bottom=0;right=0;pointerEvents=1;fontSize=16;" vertex="1" parent="dSlqdOf7tPpYg_DSaTrv-23">
          <mxGeometry x="150" width="50" height="50" as="geometry">
            <mxRectangle width="50" height="50" as="alternateBounds" />
          </mxGeometry>
        </mxCell>
        <mxCell id="dSlqdOf7tPpYg_DSaTrv-41" value="2" style="shape=partialRectangle;html=1;whiteSpace=wrap;connectable=0;strokeColor=inherit;overflow=hidden;fillColor=none;top=0;left=0;bottom=0;right=0;pointerEvents=1;fontSize=16;" vertex="1" parent="dSlqdOf7tPpYg_DSaTrv-23">
          <mxGeometry x="200" width="50" height="50" as="geometry">
            <mxRectangle width="50" height="50" as="alternateBounds" />
          </mxGeometry>
        </mxCell>
        <mxCell id="dSlqdOf7tPpYg_DSaTrv-8" value="" style="shape=tableRow;horizontal=0;startSize=0;swimlaneHead=0;swimlaneBody=0;strokeColor=inherit;top=0;left=0;bottom=0;right=0;collapsible=0;dropTarget=0;fillColor=none;points=[[0,0.5],[1,0.5]];portConstraint=eastwest;fontSize=16;" vertex="1" parent="dSlqdOf7tPpYg_DSaTrv-7">
          <mxGeometry y="100" width="250" height="50" as="geometry" />
        </mxCell>
        <mxCell id="dSlqdOf7tPpYg_DSaTrv-20" value="6" style="shape=partialRectangle;html=1;whiteSpace=wrap;connectable=0;strokeColor=inherit;overflow=hidden;fillColor=none;top=0;left=0;bottom=0;right=0;pointerEvents=1;fontSize=16;" vertex="1" parent="dSlqdOf7tPpYg_DSaTrv-8">
          <mxGeometry width="50" height="50" as="geometry">
            <mxRectangle width="50" height="50" as="alternateBounds" />
          </mxGeometry>
        </mxCell>
        <mxCell id="dSlqdOf7tPpYg_DSaTrv-9" value="1" style="shape=partialRectangle;html=1;whiteSpace=wrap;connectable=0;strokeColor=inherit;overflow=hidden;fillColor=none;top=0;left=0;bottom=0;right=0;pointerEvents=1;fontSize=16;" vertex="1" parent="dSlqdOf7tPpYg_DSaTrv-8">
          <mxGeometry x="50" width="50" height="50" as="geometry">
            <mxRectangle width="50" height="50" as="alternateBounds" />
          </mxGeometry>
        </mxCell>
        <mxCell id="dSlqdOf7tPpYg_DSaTrv-10" value="3" style="shape=partialRectangle;html=1;whiteSpace=wrap;connectable=0;strokeColor=inherit;overflow=hidden;fillColor=none;top=0;left=0;bottom=0;right=0;pointerEvents=1;fontSize=16;" vertex="1" parent="dSlqdOf7tPpYg_DSaTrv-8">
          <mxGeometry x="100" width="50" height="50" as="geometry">
            <mxRectangle width="50" height="50" as="alternateBounds" />
          </mxGeometry>
        </mxCell>
        <mxCell id="dSlqdOf7tPpYg_DSaTrv-37" value="2" style="shape=partialRectangle;html=1;whiteSpace=wrap;connectable=0;strokeColor=inherit;overflow=hidden;fillColor=none;top=0;left=0;bottom=0;right=0;pointerEvents=1;fontSize=16;" vertex="1" parent="dSlqdOf7tPpYg_DSaTrv-8">
          <mxGeometry x="150" width="50" height="50" as="geometry">
            <mxRectangle width="50" height="50" as="alternateBounds" />
          </mxGeometry>
        </mxCell>
        <mxCell id="dSlqdOf7tPpYg_DSaTrv-42" value="5" style="shape=partialRectangle;html=1;whiteSpace=wrap;connectable=0;strokeColor=inherit;overflow=hidden;fillColor=none;top=0;left=0;bottom=0;right=0;pointerEvents=1;fontSize=16;" vertex="1" parent="dSlqdOf7tPpYg_DSaTrv-8">
          <mxGeometry x="200" width="50" height="50" as="geometry">
            <mxRectangle width="50" height="50" as="alternateBounds" />
          </mxGeometry>
        </mxCell>
        <mxCell id="dSlqdOf7tPpYg_DSaTrv-12" value="" style="shape=tableRow;horizontal=0;startSize=0;swimlaneHead=0;swimlaneBody=0;strokeColor=inherit;top=0;left=0;bottom=0;right=0;collapsible=0;dropTarget=0;fillColor=none;points=[[0,0.5],[1,0.5]];portConstraint=eastwest;fontSize=16;" vertex="1" parent="dSlqdOf7tPpYg_DSaTrv-7">
          <mxGeometry y="150" width="250" height="50" as="geometry" />
        </mxCell>
        <mxCell id="dSlqdOf7tPpYg_DSaTrv-21" value="0" style="shape=partialRectangle;html=1;whiteSpace=wrap;connectable=0;strokeColor=inherit;overflow=hidden;fillColor=none;top=0;left=0;bottom=0;right=0;pointerEvents=1;fontSize=16;" vertex="1" parent="dSlqdOf7tPpYg_DSaTrv-12">
          <mxGeometry width="50" height="50" as="geometry">
            <mxRectangle width="50" height="50" as="alternateBounds" />
          </mxGeometry>
        </mxCell>
        <mxCell id="dSlqdOf7tPpYg_DSaTrv-13" value="2" style="shape=partialRectangle;html=1;whiteSpace=wrap;connectable=0;strokeColor=inherit;overflow=hidden;fillColor=none;top=0;left=0;bottom=0;right=0;pointerEvents=1;fontSize=16;" vertex="1" parent="dSlqdOf7tPpYg_DSaTrv-12">
          <mxGeometry x="50" width="50" height="50" as="geometry">
            <mxRectangle width="50" height="50" as="alternateBounds" />
          </mxGeometry>
        </mxCell>
        <mxCell id="dSlqdOf7tPpYg_DSaTrv-14" value="0" style="shape=partialRectangle;html=1;whiteSpace=wrap;connectable=0;strokeColor=inherit;overflow=hidden;fillColor=none;top=0;left=0;bottom=0;right=0;pointerEvents=1;fontSize=16;" vertex="1" parent="dSlqdOf7tPpYg_DSaTrv-12">
          <mxGeometry x="100" width="50" height="50" as="geometry">
            <mxRectangle width="50" height="50" as="alternateBounds" />
          </mxGeometry>
        </mxCell>
        <mxCell id="dSlqdOf7tPpYg_DSaTrv-38" value="7" style="shape=partialRectangle;html=1;whiteSpace=wrap;connectable=0;strokeColor=inherit;overflow=hidden;fillColor=none;top=0;left=0;bottom=0;right=0;pointerEvents=1;fontSize=16;" vertex="1" parent="dSlqdOf7tPpYg_DSaTrv-12">
          <mxGeometry x="150" width="50" height="50" as="geometry">
            <mxRectangle width="50" height="50" as="alternateBounds" />
          </mxGeometry>
        </mxCell>
        <mxCell id="dSlqdOf7tPpYg_DSaTrv-43" value="2" style="shape=partialRectangle;html=1;whiteSpace=wrap;connectable=0;strokeColor=inherit;overflow=hidden;fillColor=none;top=0;left=0;bottom=0;right=0;pointerEvents=1;fontSize=16;" vertex="1" parent="dSlqdOf7tPpYg_DSaTrv-12">
          <mxGeometry x="200" width="50" height="50" as="geometry">
            <mxRectangle width="50" height="50" as="alternateBounds" />
          </mxGeometry>
        </mxCell>
        <mxCell id="dSlqdOf7tPpYg_DSaTrv-16" value="" style="shape=tableRow;horizontal=0;startSize=0;swimlaneHead=0;swimlaneBody=0;strokeColor=inherit;top=0;left=0;bottom=0;right=0;collapsible=0;dropTarget=0;fillColor=none;points=[[0,0.5],[1,0.5]];portConstraint=eastwest;fontSize=16;" vertex="1" parent="dSlqdOf7tPpYg_DSaTrv-7">
          <mxGeometry y="200" width="250" height="50" as="geometry" />
        </mxCell>
        <mxCell id="dSlqdOf7tPpYg_DSaTrv-22" value="3" style="shape=partialRectangle;html=1;whiteSpace=wrap;connectable=0;strokeColor=inherit;overflow=hidden;fillColor=none;top=0;left=0;bottom=0;right=0;pointerEvents=1;fontSize=16;" vertex="1" parent="dSlqdOf7tPpYg_DSaTrv-16">
          <mxGeometry width="50" height="50" as="geometry">
            <mxRectangle width="50" height="50" as="alternateBounds" />
          </mxGeometry>
        </mxCell>
        <mxCell id="dSlqdOf7tPpYg_DSaTrv-17" value="7" style="shape=partialRectangle;html=1;whiteSpace=wrap;connectable=0;strokeColor=inherit;overflow=hidden;fillColor=none;top=0;left=0;bottom=0;right=0;pointerEvents=1;fontSize=16;" vertex="1" parent="dSlqdOf7tPpYg_DSaTrv-16">
          <mxGeometry x="50" width="50" height="50" as="geometry">
            <mxRectangle width="50" height="50" as="alternateBounds" />
          </mxGeometry>
        </mxCell>
        <mxCell id="dSlqdOf7tPpYg_DSaTrv-18" value="1" style="shape=partialRectangle;html=1;whiteSpace=wrap;connectable=0;strokeColor=inherit;overflow=hidden;fillColor=none;top=0;left=0;bottom=0;right=0;pointerEvents=1;fontSize=16;" vertex="1" parent="dSlqdOf7tPpYg_DSaTrv-16">
          <mxGeometry x="100" width="50" height="50" as="geometry">
            <mxRectangle width="50" height="50" as="alternateBounds" />
          </mxGeometry>
        </mxCell>
        <mxCell id="dSlqdOf7tPpYg_DSaTrv-39" value="1" style="shape=partialRectangle;html=1;whiteSpace=wrap;connectable=0;strokeColor=inherit;overflow=hidden;fillColor=none;top=0;left=0;bottom=0;right=0;pointerEvents=1;fontSize=16;" vertex="1" parent="dSlqdOf7tPpYg_DSaTrv-16">
          <mxGeometry x="150" width="50" height="50" as="geometry">
            <mxRectangle width="50" height="50" as="alternateBounds" />
          </mxGeometry>
        </mxCell>
        <mxCell id="dSlqdOf7tPpYg_DSaTrv-44" value="8" style="shape=partialRectangle;html=1;whiteSpace=wrap;connectable=0;strokeColor=inherit;overflow=hidden;fillColor=none;top=0;left=0;bottom=0;right=0;pointerEvents=1;fontSize=16;" vertex="1" parent="dSlqdOf7tPpYg_DSaTrv-16">
          <mxGeometry x="200" width="50" height="50" as="geometry">
            <mxRectangle width="50" height="50" as="alternateBounds" />
          </mxGeometry>
        </mxCell>
        <mxCell id="dSlqdOf7tPpYg_DSaTrv-45" value="" style="shape=table;startSize=0;container=1;collapsible=0;childLayout=tableLayout;fontSize=16;fillColor=#e1d5e7;strokeColor=#9673a6;" vertex="1" parent="1">
          <mxGeometry x="795" y="-345" width="180" height="180" as="geometry" />
        </mxCell>
        <mxCell id="dSlqdOf7tPpYg_DSaTrv-46" style="shape=tableRow;horizontal=0;startSize=0;swimlaneHead=0;swimlaneBody=0;strokeColor=inherit;top=0;left=0;bottom=0;right=0;collapsible=0;dropTarget=0;fillColor=none;points=[[0,0.5],[1,0.5]];portConstraint=eastwest;fontSize=16;" vertex="1" parent="dSlqdOf7tPpYg_DSaTrv-45">
          <mxGeometry width="180" height="60" as="geometry" />
        </mxCell>
        <mxCell id="dSlqdOf7tPpYg_DSaTrv-47" value="&lt;font face=&quot;Times New Roman&quot; style=&quot;font-size: 35px;&quot;&gt;8&lt;/font&gt;" style="shape=partialRectangle;html=1;whiteSpace=wrap;connectable=0;strokeColor=inherit;overflow=hidden;fillColor=none;top=0;left=0;bottom=0;right=0;pointerEvents=1;fontSize=16;" vertex="1" parent="dSlqdOf7tPpYg_DSaTrv-46">
          <mxGeometry width="60" height="60" as="geometry">
            <mxRectangle width="60" height="60" as="alternateBounds" />
          </mxGeometry>
        </mxCell>
        <mxCell id="dSlqdOf7tPpYg_DSaTrv-48" value="18" style="shape=partialRectangle;html=1;whiteSpace=wrap;connectable=0;strokeColor=inherit;overflow=hidden;fillColor=none;top=0;left=0;bottom=0;right=0;pointerEvents=1;fontSize=16;" vertex="1" parent="dSlqdOf7tPpYg_DSaTrv-46">
          <mxGeometry x="60" width="60" height="60" as="geometry">
            <mxRectangle width="60" height="60" as="alternateBounds" />
          </mxGeometry>
        </mxCell>
        <mxCell id="dSlqdOf7tPpYg_DSaTrv-49" value="9" style="shape=partialRectangle;html=1;whiteSpace=wrap;connectable=0;strokeColor=inherit;overflow=hidden;fillColor=none;top=0;left=0;bottom=0;right=0;pointerEvents=1;fontSize=16;" vertex="1" parent="dSlqdOf7tPpYg_DSaTrv-46">
          <mxGeometry x="120" width="60" height="60" as="geometry">
            <mxRectangle width="60" height="60" as="alternateBounds" />
          </mxGeometry>
        </mxCell>
        <mxCell id="dSlqdOf7tPpYg_DSaTrv-52" style="shape=tableRow;horizontal=0;startSize=0;swimlaneHead=0;swimlaneBody=0;strokeColor=inherit;top=0;left=0;bottom=0;right=0;collapsible=0;dropTarget=0;fillColor=none;points=[[0,0.5],[1,0.5]];portConstraint=eastwest;fontSize=16;" vertex="1" parent="dSlqdOf7tPpYg_DSaTrv-45">
          <mxGeometry y="60" width="180" height="60" as="geometry" />
        </mxCell>
        <mxCell id="dSlqdOf7tPpYg_DSaTrv-53" value="8" style="shape=partialRectangle;html=1;whiteSpace=wrap;connectable=0;strokeColor=inherit;overflow=hidden;fillColor=none;top=0;left=0;bottom=0;right=0;pointerEvents=1;fontSize=16;" vertex="1" parent="dSlqdOf7tPpYg_DSaTrv-52">
          <mxGeometry width="60" height="60" as="geometry">
            <mxRectangle width="60" height="60" as="alternateBounds" />
          </mxGeometry>
        </mxCell>
        <mxCell id="dSlqdOf7tPpYg_DSaTrv-54" value="-3" style="shape=partialRectangle;html=1;whiteSpace=wrap;connectable=0;strokeColor=inherit;overflow=hidden;fillColor=none;top=0;left=0;bottom=0;right=0;pointerEvents=1;fontSize=16;" vertex="1" parent="dSlqdOf7tPpYg_DSaTrv-52">
          <mxGeometry x="60" width="60" height="60" as="geometry">
            <mxRectangle width="60" height="60" as="alternateBounds" />
          </mxGeometry>
        </mxCell>
        <mxCell id="dSlqdOf7tPpYg_DSaTrv-55" value="1" style="shape=partialRectangle;html=1;whiteSpace=wrap;connectable=0;strokeColor=inherit;overflow=hidden;fillColor=none;top=0;left=0;bottom=0;right=0;pointerEvents=1;fontSize=16;" vertex="1" parent="dSlqdOf7tPpYg_DSaTrv-52">
          <mxGeometry x="120" width="60" height="60" as="geometry">
            <mxRectangle width="60" height="60" as="alternateBounds" />
          </mxGeometry>
        </mxCell>
        <mxCell id="dSlqdOf7tPpYg_DSaTrv-58" value="" style="shape=tableRow;horizontal=0;startSize=0;swimlaneHead=0;swimlaneBody=0;strokeColor=inherit;top=0;left=0;bottom=0;right=0;collapsible=0;dropTarget=0;fillColor=none;points=[[0,0.5],[1,0.5]];portConstraint=eastwest;fontSize=16;" vertex="1" parent="dSlqdOf7tPpYg_DSaTrv-45">
          <mxGeometry y="120" width="180" height="60" as="geometry" />
        </mxCell>
        <mxCell id="dSlqdOf7tPpYg_DSaTrv-59" value="-9" style="shape=partialRectangle;html=1;whiteSpace=wrap;connectable=0;strokeColor=inherit;overflow=hidden;fillColor=none;top=0;left=0;bottom=0;right=0;pointerEvents=1;fontSize=16;" vertex="1" parent="dSlqdOf7tPpYg_DSaTrv-58">
          <mxGeometry width="60" height="60" as="geometry">
            <mxRectangle width="60" height="60" as="alternateBounds" />
          </mxGeometry>
        </mxCell>
        <mxCell id="dSlqdOf7tPpYg_DSaTrv-60" value="0" style="shape=partialRectangle;html=1;whiteSpace=wrap;connectable=0;strokeColor=inherit;overflow=hidden;fillColor=none;top=0;left=0;bottom=0;right=0;pointerEvents=1;fontSize=16;" vertex="1" parent="dSlqdOf7tPpYg_DSaTrv-58">
          <mxGeometry x="60" width="60" height="60" as="geometry">
            <mxRectangle width="60" height="60" as="alternateBounds" />
          </mxGeometry>
        </mxCell>
        <mxCell id="dSlqdOf7tPpYg_DSaTrv-61" value="-1" style="shape=partialRectangle;html=1;whiteSpace=wrap;connectable=0;strokeColor=inherit;overflow=hidden;fillColor=none;top=0;left=0;bottom=0;right=0;pointerEvents=1;fontSize=16;" vertex="1" parent="dSlqdOf7tPpYg_DSaTrv-58">
          <mxGeometry x="120" width="60" height="60" as="geometry">
            <mxRectangle width="60" height="60" as="alternateBounds" />
          </mxGeometry>
        </mxCell>
        <mxCell id="dSlqdOf7tPpYg_DSaTrv-76" value="" style="shape=table;startSize=0;container=1;collapsible=0;childLayout=tableLayout;fontSize=16;fillColor=#e1d5e7;strokeColor=#9673a6;" vertex="1" parent="1">
          <mxGeometry x="540" y="92" width="180" height="180" as="geometry" />
        </mxCell>
        <mxCell id="dSlqdOf7tPpYg_DSaTrv-77" style="shape=tableRow;horizontal=0;startSize=0;swimlaneHead=0;swimlaneBody=0;strokeColor=inherit;top=0;left=0;bottom=0;right=0;collapsible=0;dropTarget=0;fillColor=none;points=[[0,0.5],[1,0.5]];portConstraint=eastwest;fontSize=16;" vertex="1" parent="dSlqdOf7tPpYg_DSaTrv-76">
          <mxGeometry width="180" height="60" as="geometry" />
        </mxCell>
        <mxCell id="dSlqdOf7tPpYg_DSaTrv-78" value="&lt;font face=&quot;Times New Roman&quot; style=&quot;font-size: 35px;&quot;&gt;0&lt;/font&gt;" style="shape=partialRectangle;html=1;whiteSpace=wrap;connectable=0;strokeColor=inherit;overflow=hidden;fillColor=none;top=0;left=0;bottom=0;right=0;pointerEvents=1;fontSize=16;" vertex="1" parent="dSlqdOf7tPpYg_DSaTrv-77">
          <mxGeometry width="60" height="60" as="geometry">
            <mxRectangle width="60" height="60" as="alternateBounds" />
          </mxGeometry>
        </mxCell>
        <mxCell id="dSlqdOf7tPpYg_DSaTrv-79" value="0" style="shape=partialRectangle;html=1;whiteSpace=wrap;connectable=0;strokeColor=inherit;overflow=hidden;fillColor=none;top=0;left=0;bottom=0;right=0;pointerEvents=1;fontSize=16;" vertex="1" parent="dSlqdOf7tPpYg_DSaTrv-77">
          <mxGeometry x="60" width="60" height="60" as="geometry">
            <mxRectangle width="60" height="60" as="alternateBounds" />
          </mxGeometry>
        </mxCell>
        <mxCell id="dSlqdOf7tPpYg_DSaTrv-80" value="0" style="shape=partialRectangle;html=1;whiteSpace=wrap;connectable=0;strokeColor=inherit;overflow=hidden;fillColor=none;top=0;left=0;bottom=0;right=0;pointerEvents=1;fontSize=16;" vertex="1" parent="dSlqdOf7tPpYg_DSaTrv-77">
          <mxGeometry x="120" width="60" height="60" as="geometry">
            <mxRectangle width="60" height="60" as="alternateBounds" />
          </mxGeometry>
        </mxCell>
        <mxCell id="dSlqdOf7tPpYg_DSaTrv-81" style="shape=tableRow;horizontal=0;startSize=0;swimlaneHead=0;swimlaneBody=0;strokeColor=inherit;top=0;left=0;bottom=0;right=0;collapsible=0;dropTarget=0;fillColor=none;points=[[0,0.5],[1,0.5]];portConstraint=eastwest;fontSize=16;" vertex="1" parent="dSlqdOf7tPpYg_DSaTrv-76">
          <mxGeometry y="60" width="180" height="60" as="geometry" />
        </mxCell>
        <mxCell id="dSlqdOf7tPpYg_DSaTrv-82" value="1" style="shape=partialRectangle;html=1;whiteSpace=wrap;connectable=0;strokeColor=inherit;overflow=hidden;fillColor=none;top=0;left=0;bottom=0;right=0;pointerEvents=1;fontSize=16;" vertex="1" parent="dSlqdOf7tPpYg_DSaTrv-81">
          <mxGeometry width="60" height="60" as="geometry">
            <mxRectangle width="60" height="60" as="alternateBounds" />
          </mxGeometry>
        </mxCell>
        <mxCell id="dSlqdOf7tPpYg_DSaTrv-83" value="1" style="shape=partialRectangle;html=1;whiteSpace=wrap;connectable=0;strokeColor=inherit;overflow=hidden;fillColor=none;top=0;left=0;bottom=0;right=0;pointerEvents=1;fontSize=16;" vertex="1" parent="dSlqdOf7tPpYg_DSaTrv-81">
          <mxGeometry x="60" width="60" height="60" as="geometry">
            <mxRectangle width="60" height="60" as="alternateBounds" />
          </mxGeometry>
        </mxCell>
        <mxCell id="dSlqdOf7tPpYg_DSaTrv-84" value="1" style="shape=partialRectangle;html=1;whiteSpace=wrap;connectable=0;strokeColor=inherit;overflow=hidden;fillColor=none;top=0;left=0;bottom=0;right=0;pointerEvents=1;fontSize=16;" vertex="1" parent="dSlqdOf7tPpYg_DSaTrv-81">
          <mxGeometry x="120" width="60" height="60" as="geometry">
            <mxRectangle width="60" height="60" as="alternateBounds" />
          </mxGeometry>
        </mxCell>
        <mxCell id="dSlqdOf7tPpYg_DSaTrv-85" value="" style="shape=tableRow;horizontal=0;startSize=0;swimlaneHead=0;swimlaneBody=0;strokeColor=inherit;top=0;left=0;bottom=0;right=0;collapsible=0;dropTarget=0;fillColor=none;points=[[0,0.5],[1,0.5]];portConstraint=eastwest;fontSize=16;" vertex="1" parent="dSlqdOf7tPpYg_DSaTrv-76">
          <mxGeometry y="120" width="180" height="60" as="geometry" />
        </mxCell>
        <mxCell id="dSlqdOf7tPpYg_DSaTrv-86" value="-1" style="shape=partialRectangle;html=1;whiteSpace=wrap;connectable=0;strokeColor=inherit;overflow=hidden;fillColor=none;top=0;left=0;bottom=0;right=0;pointerEvents=1;fontSize=16;" vertex="1" parent="dSlqdOf7tPpYg_DSaTrv-85">
          <mxGeometry width="60" height="60" as="geometry">
            <mxRectangle width="60" height="60" as="alternateBounds" />
          </mxGeometry>
        </mxCell>
        <mxCell id="dSlqdOf7tPpYg_DSaTrv-87" value="-1" style="shape=partialRectangle;html=1;whiteSpace=wrap;connectable=0;strokeColor=inherit;overflow=hidden;fillColor=none;top=0;left=0;bottom=0;right=0;pointerEvents=1;fontSize=16;" vertex="1" parent="dSlqdOf7tPpYg_DSaTrv-85">
          <mxGeometry x="60" width="60" height="60" as="geometry">
            <mxRectangle width="60" height="60" as="alternateBounds" />
          </mxGeometry>
        </mxCell>
        <mxCell id="dSlqdOf7tPpYg_DSaTrv-88" value="-1" style="shape=partialRectangle;html=1;whiteSpace=wrap;connectable=0;strokeColor=inherit;overflow=hidden;fillColor=none;top=0;left=0;bottom=0;right=0;pointerEvents=1;fontSize=16;" vertex="1" parent="dSlqdOf7tPpYg_DSaTrv-85">
          <mxGeometry x="120" width="60" height="60" as="geometry">
            <mxRectangle width="60" height="60" as="alternateBounds" />
          </mxGeometry>
        </mxCell>
      </root>
    </mxGraphModel>
  </diagram>
</mxfile>
